<?xml version="1.0" encoding="iso-8859-1"?>
<svg version="1.1" id="Capa_1" xmlns="http://www.w3.org/2000/svg" xmlns:xlink="http://www.w3.org/1999/xlink" x="0px" y="0px"
	 viewBox="0 0 386.56 386.56" style="enable-background:new 0 0 386.56 386.56;" xml:space="preserve">
<g>
	<g>
		<path fill="#fff" d="M346.661,193.48c2.237-4.085,3.419-8.663,3.44-13.32c0.56-12-3.6-29.24-10.12-45.56s-15.44-32-24.32-40.88
			c-3.724-4.154-8.551-7.164-13.92-8.68c-1.288-4.525-3.696-8.652-7-12c-8.08-9.08-23.28-18.12-39.36-25.08
			s-33.48-11.72-46.08-11.72c-5.578-0.303-11.128,0.987-16,3.72c-4.022-2.219-8.527-3.414-13.12-3.48
			c-12-0.56-29.24,3.6-45.56,10.12c-16.32,6.52-32,15.44-40.88,24.32c-4.152,3.725-7.162,8.552-8.68,13.92
			c-4.525,1.288-8.652,3.696-12,7c-9.08,8.08-18.12,23.28-25.08,39.36c-6.96,16.08-11.72,33.48-11.72,46.08
			c-0.303,5.578,0.987,11.128,3.72,16c-2.313,4.078-3.564,8.672-3.64,13.36c-0.56,12,3.6,29.24,10.12,45.56s15.44,32,24.32,40.88
			c3.725,4.152,8.552,7.162,13.92,8.68c1.288,4.525,3.696,8.652,7,12c8.08,9.08,23.28,18.12,39.36,25.08
			c16.08,6.96,33.48,11.72,46.08,11.72c5.578,0.301,11.127-0.989,16-3.72c4.085,2.237,8.663,3.419,13.32,3.44
			c12,0.56,29.24-3.6,45.56-10.12s32-15.44,40.88-24.32c4.152-3.725,7.162-8.552,8.68-13.92c4.525-1.288,8.652-3.696,12-7
			c9.08-8.08,18.12-23.28,25.08-39.36c6.96-16.08,11.72-33.48,11.72-46.08C350.684,203.902,349.394,198.353,346.661,193.48z
			 M60.301,136.48c6.24-14.76,14.32-28,21.76-34.76c3.24-2.96,5.76-4.16,7.24-2.96l0.28,0.48l87.52,87.32h-123.4
			c-2.88,0-4-3.72-4-9.28C49.701,166.52,54.061,151.24,60.301,136.48z M89.741,287.52c-1.92,1.76-5.28,0-9.28-4
			c-7.64-7.64-15.56-21.6-21.36-36.32c-5.8-14.72-9.8-29.92-9.2-40c0.2-4.16,1.12-6.96,2.96-7.2h0.72h123.52L89.741,287.52z
			 M186.581,332.88c0,2.88-3.72,4-9.28,4c-10.76,0-26-4.2-40.76-10.44c-14.76-6.24-28-14.32-34.76-21.76
			c-2.96-3.24-4.16-5.76-2.96-7.24l0.44-0.44l87.32-87.52V332.88z M186.581,53.56v123.52l-87.52-87.36c-1.76-1.92,0-5.28,4-9.28
			c7.64-7.64,21.6-15.56,36.32-21.36c14.72-5.8,29.92-9.8,40-9.2c4.16,0.2,6.96,1.12,7.2,2.96
			C186.581,53.08,186.581,53.32,186.581,53.56z M296.901,99.04c1.92-1.76,5.28,0,9.28,4c7.64,7.64,15.52,21.6,21.36,36.32
			c5.84,14.72,9.64,29.92,9.16,40c-0.2,4.16-1.12,6.96-2.96,7.2h-0.72h-123.52L296.901,99.04z M200.021,53.68c0-2.88,3.72-4,9.28-4
			c10.76,0,26,4.36,40.76,10.6s28,14.28,34.76,21.76c2.96,3.24,4.16,5.76,2.96,7.24l-0.44,0.44l-87.32,87.36V53.68z M283.541,306.16
			c-7.64,7.64-21.6,15.52-36.32,21.36c-14.72,5.84-29.92,9.64-40,9.16c-4.16-0.2-6.96-1.12-7.2-2.96c0-0.24,0-0.48,0-0.72V209.48
			l87.52,87.4C289.301,298.8,287.541,302.16,283.541,306.16z M326.461,250.04c-6.24,14.76-14.32,28-21.76,34.76
			c-3.24,2.96-5.76,4.16-7.24,2.96l-0.44-0.44L209.501,200h123.4c2.88,0,4,3.72,4,9.28
			C336.901,220.04,332.701,235.28,326.461,250.04z"/>
	</g>
</g>
<g>
	<g>
		<path fill="#fff" d="M193.301,0C142.025-0.071,92.835,20.298,56.621,56.6C20.373,92.843,0.006,142,0,193.259
			C-0.011,300.005,86.514,386.549,193.259,386.56s193.289-86.514,193.301-193.259S300.047,0.012,193.301,0z M320.7,320.678
			c-70.228,70.36-184.198,70.467-254.558,0.239S-4.326,136.719,65.903,66.359S250.101-4.108,320.461,66.12
			c33.838,33.663,52.856,79.429,52.84,127.16C373.364,241.043,354.442,286.873,320.7,320.678z"/>
	</g>
</g>
<g>
</g>
<g>
</g>
<g>
</g>
<g>
</g>
<g>
</g>
<g>
</g>
<g>
</g>
<g>
</g>
<g>
</g>
<g>
</g>
<g>
</g>
<g>
</g>
<g>
</g>
<g>
</g>
<g>
</g>
</svg>
